<mxfile host="app.diagrams.net" modified="2024-05-19T15:54:56.688Z" agent="Mozilla/5.0 (Windows NT 10.0; Win64; x64) AppleWebKit/537.36 (KHTML, like Gecko) Chrome/124.0.0.0 Safari/537.36" etag="bPmrAOwDrVzNcu4HFflY" version="24.4.4" type="github">
  <diagram id="C5RBs43oDa-KdzZeNtuy" name="Page-1">
    <mxGraphModel dx="500" dy="249" grid="0" gridSize="10" guides="1" tooltips="1" connect="1" arrows="1" fold="1" page="1" pageScale="1" pageWidth="827" pageHeight="1169" math="0" shadow="0">
      <root>
        <mxCell id="WIyWlLk6GJQsqaUBKTNV-0" />
        <mxCell id="WIyWlLk6GJQsqaUBKTNV-1" parent="WIyWlLk6GJQsqaUBKTNV-0" />
        <mxCell id="NMSrQERmVCEjVIg-8JzD-0" value="&lt;font style=&quot;font-size: 10px;&quot; face=&quot;Vazirmatn&quot;&gt;سیستم وبلاگ&lt;/font&gt;" style="shape=umlFrame;whiteSpace=wrap;html=1;pointerEvents=0;labelBackgroundColor=none;fillColor=#182E3E;strokeColor=#FFFFFF;fontColor=#FFFFFF;" parent="WIyWlLk6GJQsqaUBKTNV-1" vertex="1">
          <mxGeometry x="264" y="74" width="300" height="866" as="geometry" />
        </mxCell>
        <mxCell id="NMSrQERmVCEjVIg-8JzD-11" style="rounded=0;orthogonalLoop=1;jettySize=auto;html=1;exitX=0.75;exitY=0.1;exitDx=0;exitDy=0;exitPerimeter=0;entryX=0;entryY=0.5;entryDx=0;entryDy=0;labelBackgroundColor=none;strokeColor=#23445D;fontColor=default;" parent="WIyWlLk6GJQsqaUBKTNV-1" source="NMSrQERmVCEjVIg-8JzD-1" target="NMSrQERmVCEjVIg-8JzD-3" edge="1">
          <mxGeometry relative="1" as="geometry" />
        </mxCell>
        <mxCell id="NMSrQERmVCEjVIg-8JzD-1" value="User" style="shape=umlActor;verticalLabelPosition=bottom;verticalAlign=top;html=1;labelBackgroundColor=none;fillColor=#182E3E;strokeColor=#FFFFFF;fontColor=#FFFFFF;" parent="WIyWlLk6GJQsqaUBKTNV-1" vertex="1">
          <mxGeometry x="99" y="276" width="30" height="60" as="geometry" />
        </mxCell>
        <mxCell id="NMSrQERmVCEjVIg-8JzD-2" value="Diglog" style="shape=umlActor;verticalLabelPosition=bottom;verticalAlign=top;html=1;labelBackgroundColor=none;fillColor=#182E3E;strokeColor=#FFFFFF;fontColor=#FFFFFF;" parent="WIyWlLk6GJQsqaUBKTNV-1" vertex="1">
          <mxGeometry x="710" y="276" width="30" height="60" as="geometry" />
        </mxCell>
        <mxCell id="NMSrQERmVCEjVIg-8JzD-3" value="&lt;font style=&quot;font-size: 10px;&quot; face=&quot;Vazirmatn&quot;&gt;ورود کاربر&lt;/font&gt;" style="ellipse;whiteSpace=wrap;html=1;labelBackgroundColor=none;fillColor=#182E3E;strokeColor=#FFFFFF;fontColor=#FFFFFF;" parent="WIyWlLk6GJQsqaUBKTNV-1" vertex="1">
          <mxGeometry x="369" y="74" width="68" height="31" as="geometry" />
        </mxCell>
        <mxCell id="NMSrQERmVCEjVIg-8JzD-10" value="" style="rounded=0;orthogonalLoop=1;jettySize=auto;html=1;dashed=1;dashPattern=1 2;entryX=0.924;entryY=0.843;entryDx=0;entryDy=0;entryPerimeter=0;labelBackgroundColor=none;strokeColor=#23445D;fontColor=default;" parent="WIyWlLk6GJQsqaUBKTNV-1" source="NMSrQERmVCEjVIg-8JzD-4" target="NMSrQERmVCEjVIg-8JzD-3" edge="1">
          <mxGeometry relative="1" as="geometry">
            <mxPoint x="434.997052449286" y="96.00413623856132" as="targetPoint" />
          </mxGeometry>
        </mxCell>
        <mxCell id="NMSrQERmVCEjVIg-8JzD-4" value="&lt;font face=&quot;Vazirmatn&quot;&gt;&lt;span style=&quot;font-size: 10px;&quot;&gt;نمایش خطا&lt;/span&gt;&lt;/font&gt;" style="ellipse;whiteSpace=wrap;html=1;labelBackgroundColor=none;fillColor=#182E3E;strokeColor=#FFFFFF;fontColor=#FFFFFF;" parent="WIyWlLk6GJQsqaUBKTNV-1" vertex="1">
          <mxGeometry x="476.52" y="110.24" width="59" height="29" as="geometry" />
        </mxCell>
        <mxCell id="NMSrQERmVCEjVIg-8JzD-15" style="rounded=0;orthogonalLoop=1;jettySize=auto;html=1;exitX=1;exitY=0.5;exitDx=0;exitDy=0;entryX=0;entryY=0.5;entryDx=0;entryDy=0;dashed=1;dashPattern=1 1;labelBackgroundColor=none;strokeColor=#23445D;fontColor=default;" parent="WIyWlLk6GJQsqaUBKTNV-1" source="NMSrQERmVCEjVIg-8JzD-12" target="NMSrQERmVCEjVIg-8JzD-13" edge="1">
          <mxGeometry relative="1" as="geometry" />
        </mxCell>
        <mxCell id="NMSrQERmVCEjVIg-8JzD-17" style="rounded=0;orthogonalLoop=1;jettySize=auto;html=1;exitX=0.5;exitY=0;exitDx=0;exitDy=0;entryX=0.5;entryY=1;entryDx=0;entryDy=0;dashed=1;dashPattern=1 1;labelBackgroundColor=none;strokeColor=#23445D;fontColor=default;" parent="WIyWlLk6GJQsqaUBKTNV-1" source="NMSrQERmVCEjVIg-8JzD-12" target="NMSrQERmVCEjVIg-8JzD-3" edge="1">
          <mxGeometry relative="1" as="geometry" />
        </mxCell>
        <mxCell id="NMSrQERmVCEjVIg-8JzD-18" value="&lt;font style=&quot;font-size: 7px;&quot; data-font-src=&quot;https://fonts.googleapis.com/css?family=Vazirmatn&quot; face=&quot;Vazirmatn&quot;&gt;وجود نداشتن حساب&lt;/font&gt;" style="edgeLabel;html=1;align=center;verticalAlign=middle;resizable=0;points=[];labelBackgroundColor=none;fontColor=#FFFFFF;" parent="NMSrQERmVCEjVIg-8JzD-17" vertex="1" connectable="0">
          <mxGeometry x="-0.1135" relative="1" as="geometry">
            <mxPoint as="offset" />
          </mxGeometry>
        </mxCell>
        <mxCell id="NMSrQERmVCEjVIg-8JzD-12" value="&lt;font face=&quot;Vazirmatn&quot;&gt;&lt;span style=&quot;font-size: 10px;&quot;&gt;ساخت حساب&lt;/span&gt;&lt;/font&gt;" style="ellipse;whiteSpace=wrap;html=1;labelBackgroundColor=none;fillColor=#182E3E;strokeColor=#FFFFFF;fontColor=#FFFFFF;" parent="WIyWlLk6GJQsqaUBKTNV-1" vertex="1">
          <mxGeometry x="386" y="139.24" width="63" height="31" as="geometry" />
        </mxCell>
        <mxCell id="NMSrQERmVCEjVIg-8JzD-13" value="&lt;font face=&quot;Vazirmatn&quot;&gt;&lt;span style=&quot;font-size: 10px;&quot;&gt;ذخیره کاربر در پایگاه داده&lt;/span&gt;&lt;/font&gt;" style="ellipse;whiteSpace=wrap;html=1;labelBackgroundColor=none;fillColor=#182E3E;strokeColor=#FFFFFF;fontColor=#FFFFFF;" parent="WIyWlLk6GJQsqaUBKTNV-1" vertex="1">
          <mxGeometry x="486" y="155" width="63" height="31" as="geometry" />
        </mxCell>
      </root>
    </mxGraphModel>
  </diagram>
</mxfile>
